%TF.GenerationSoftware,KiCad,Pcbnew,10.0.1*%
%TF.CreationDate,2026-05-01T20:11:25-05:00*%
%TF.ProjectId,DBranded1,44427261-6e64-4656-9431-2e6b69636164,rev?*%
%TF.SameCoordinates,Original*%
%TF.FileFunction,Copper,L2,Bot*%
%TF.FilePolarity,Positive*%
%FSLAX46Y46*%
G04 Gerber Fmt 4.6, Leading zero omitted, Abs format (unit mm)*
G04 Created by KiCad (PCBNEW 10.0.1) date 2026-05-01 20:11:25*
%MOMM*%
%LPD*%
G01*
G04 APERTURE LIST*
%TA.AperFunction,ComponentPad*%
%ADD10C,0.600000*%
%TD*%
%TA.AperFunction,ViaPad*%
%ADD11C,0.600000*%
%TD*%
%TA.AperFunction,Conductor*%
%ADD12C,0.200000*%
%TD*%
G04 APERTURE END LIST*
D10*
%TO.P,REF\u002A\u002A,2*%
%TO.N,Net-(U1-LB)*%
X118044318Y-54761363D03*
%TD*%
D11*
%TO.N,GND*%
X116700000Y-63600000D03*
%TO.N,Net-(D1-A)*%
X117900000Y-67600000D03*
X122200000Y-64300000D03*
%TO.N,Net-(U1-LB)*%
X119900000Y-61200000D03*
%TD*%
%TO.N,Net-(D1-A)*%
D12*
X118900000Y-67600000D02*
X122200000Y-64300000D01*
X117900000Y-67600000D02*
X118900000Y-67600000D01*
%TO.N,Net-(U1-LB)*%
X119900000Y-54600000D02*
X119600000Y-54300000D01*
X119600000Y-54300000D02*
X118577841Y-54300000D01*
X118577841Y-54300000D02*
X118080398Y-54797443D01*
X119900000Y-61200000D02*
X119900000Y-54600000D01*
%TD*%
%TA.AperFunction,Conductor*%
%TO.N,GND*%
G36*
X139402702Y-15800617D02*
G01*
X139786773Y-15817386D01*
X139797505Y-15818326D01*
X140175963Y-15868150D01*
X140186601Y-15870025D01*
X140559279Y-15952647D01*
X140569720Y-15955445D01*
X140933765Y-16070227D01*
X140943911Y-16073920D01*
X141296578Y-16220000D01*
X141306369Y-16224566D01*
X141644942Y-16400816D01*
X141654310Y-16406224D01*
X141976244Y-16611318D01*
X141985105Y-16617523D01*
X142287930Y-16849889D01*
X142296217Y-16856843D01*
X142577635Y-17114715D01*
X142585284Y-17122364D01*
X142843156Y-17403782D01*
X142850110Y-17412069D01*
X143082476Y-17714894D01*
X143088681Y-17723755D01*
X143293775Y-18045689D01*
X143299183Y-18055057D01*
X143475430Y-18393623D01*
X143480002Y-18403427D01*
X143626075Y-18756078D01*
X143629775Y-18766244D01*
X143744553Y-19130276D01*
X143747353Y-19140724D01*
X143829972Y-19513390D01*
X143831850Y-19524044D01*
X143881671Y-19902472D01*
X143882614Y-19913248D01*
X143899382Y-20297297D01*
X143899500Y-20302706D01*
X143899500Y-99675500D01*
X143879815Y-99742539D01*
X143827011Y-99788294D01*
X143775500Y-99799500D01*
X92024500Y-99799500D01*
X91957461Y-99779815D01*
X91911706Y-99727011D01*
X91900500Y-99675500D01*
X91900500Y-67520943D01*
X117299500Y-67520943D01*
X117299500Y-67679056D01*
X117340423Y-67831783D01*
X117340426Y-67831790D01*
X117419475Y-67968709D01*
X117419479Y-67968714D01*
X117419480Y-67968716D01*
X117531284Y-68080520D01*
X117531286Y-68080521D01*
X117531290Y-68080524D01*
X117668209Y-68159573D01*
X117668216Y-68159577D01*
X117820943Y-68200500D01*
X117820945Y-68200500D01*
X117979055Y-68200500D01*
X117979057Y-68200500D01*
X118131784Y-68159577D01*
X118268716Y-68080520D01*
X118312417Y-68036819D01*
X118373740Y-68003334D01*
X118400098Y-68000500D01*
X118952725Y-68000500D01*
X118952727Y-68000500D01*
X119054588Y-67973207D01*
X119145913Y-67920480D01*
X122129573Y-64936818D01*
X122190896Y-64903334D01*
X122217254Y-64900500D01*
X122279055Y-64900500D01*
X122279057Y-64900500D01*
X122431784Y-64859577D01*
X122568716Y-64780520D01*
X122680520Y-64668716D01*
X122759577Y-64531784D01*
X122800500Y-64379057D01*
X122800500Y-64220943D01*
X122759577Y-64068216D01*
X122759573Y-64068209D01*
X122680524Y-63931290D01*
X122680518Y-63931282D01*
X122568717Y-63819481D01*
X122568709Y-63819475D01*
X122431790Y-63740426D01*
X122431786Y-63740424D01*
X122431784Y-63740423D01*
X122279057Y-63699500D01*
X122120943Y-63699500D01*
X121968216Y-63740423D01*
X121968209Y-63740426D01*
X121831290Y-63819475D01*
X121831282Y-63819481D01*
X121719481Y-63931282D01*
X121719475Y-63931290D01*
X121640426Y-64068209D01*
X121640423Y-64068216D01*
X121599500Y-64220943D01*
X121599500Y-64282745D01*
X121579815Y-64349784D01*
X121563181Y-64370426D01*
X118770426Y-67163181D01*
X118709103Y-67196666D01*
X118682745Y-67199500D01*
X118400098Y-67199500D01*
X118333059Y-67179815D01*
X118312417Y-67163181D01*
X118268717Y-67119481D01*
X118268709Y-67119475D01*
X118131790Y-67040426D01*
X118131786Y-67040424D01*
X118131784Y-67040423D01*
X117979057Y-66999500D01*
X117820943Y-66999500D01*
X117668216Y-67040423D01*
X117668209Y-67040426D01*
X117531290Y-67119475D01*
X117531282Y-67119481D01*
X117419481Y-67231282D01*
X117419475Y-67231290D01*
X117340426Y-67368209D01*
X117340423Y-67368216D01*
X117299500Y-67520943D01*
X91900500Y-67520943D01*
X91900500Y-54682306D01*
X117443818Y-54682306D01*
X117443818Y-54840419D01*
X117484741Y-54993146D01*
X117484744Y-54993153D01*
X117563793Y-55130072D01*
X117563797Y-55130077D01*
X117563798Y-55130079D01*
X117675602Y-55241883D01*
X117675604Y-55241884D01*
X117675608Y-55241887D01*
X117812527Y-55320936D01*
X117812534Y-55320940D01*
X117965261Y-55361863D01*
X117965263Y-55361863D01*
X118123373Y-55361863D01*
X118123375Y-55361863D01*
X118276102Y-55320940D01*
X118413034Y-55241883D01*
X118524838Y-55130079D01*
X118603895Y-54993147D01*
X118644818Y-54840420D01*
X118644818Y-54840407D01*
X118645539Y-54834935D01*
X118654788Y-54814025D01*
X118659648Y-54791686D01*
X118671921Y-54775291D01*
X118673803Y-54771037D01*
X118680776Y-54763456D01*
X118707417Y-54736815D01*
X118768739Y-54703333D01*
X118795095Y-54700500D01*
X119375500Y-54700500D01*
X119442539Y-54720185D01*
X119488294Y-54772989D01*
X119499500Y-54824500D01*
X119499500Y-60699902D01*
X119479815Y-60766941D01*
X119463181Y-60787583D01*
X119419481Y-60831282D01*
X119419475Y-60831290D01*
X119340426Y-60968209D01*
X119340423Y-60968216D01*
X119299500Y-61120943D01*
X119299500Y-61279056D01*
X119340423Y-61431783D01*
X119340426Y-61431790D01*
X119419475Y-61568709D01*
X119419479Y-61568714D01*
X119419480Y-61568716D01*
X119531284Y-61680520D01*
X119531286Y-61680521D01*
X119531290Y-61680524D01*
X119668209Y-61759573D01*
X119668216Y-61759577D01*
X119820943Y-61800500D01*
X119820945Y-61800500D01*
X119979055Y-61800500D01*
X119979057Y-61800500D01*
X120131784Y-61759577D01*
X120268716Y-61680520D01*
X120380520Y-61568716D01*
X120459577Y-61431784D01*
X120500500Y-61279057D01*
X120500500Y-61120943D01*
X120459577Y-60968216D01*
X120459573Y-60968209D01*
X120380524Y-60831290D01*
X120380518Y-60831282D01*
X120336819Y-60787583D01*
X120303334Y-60726260D01*
X120300500Y-60699902D01*
X120300500Y-54547275D01*
X120300500Y-54547273D01*
X120283747Y-54484750D01*
X120273207Y-54445412D01*
X120220480Y-54354087D01*
X119845913Y-53979520D01*
X119800250Y-53953156D01*
X119754589Y-53926793D01*
X119703657Y-53913146D01*
X119652727Y-53899500D01*
X119652726Y-53899500D01*
X118638180Y-53899500D01*
X118638164Y-53899499D01*
X118630568Y-53899499D01*
X118525114Y-53899499D01*
X118457207Y-53917695D01*
X118423253Y-53926793D01*
X118331925Y-53979522D01*
X118186904Y-54124544D01*
X118125581Y-54158029D01*
X118099223Y-54160863D01*
X117965261Y-54160863D01*
X117812534Y-54201786D01*
X117812527Y-54201789D01*
X117675608Y-54280838D01*
X117675600Y-54280844D01*
X117563799Y-54392645D01*
X117563793Y-54392653D01*
X117484744Y-54529572D01*
X117484741Y-54529579D01*
X117443818Y-54682306D01*
X91900500Y-54682306D01*
X91900500Y-22578711D01*
X96049500Y-22578711D01*
X96049500Y-22821288D01*
X96081161Y-23061785D01*
X96143947Y-23296104D01*
X96236773Y-23520205D01*
X96236776Y-23520212D01*
X96358064Y-23730289D01*
X96358066Y-23730292D01*
X96358067Y-23730293D01*
X96505733Y-23922736D01*
X96505739Y-23922743D01*
X96677256Y-24094260D01*
X96677262Y-24094265D01*
X96869711Y-24241936D01*
X97079788Y-24363224D01*
X97303900Y-24456054D01*
X97538211Y-24518838D01*
X97718586Y-24542584D01*
X97778711Y-24550500D01*
X97778712Y-24550500D01*
X98021289Y-24550500D01*
X98069388Y-24544167D01*
X98261789Y-24518838D01*
X98496100Y-24456054D01*
X98720212Y-24363224D01*
X98930289Y-24241936D01*
X99122738Y-24094265D01*
X99294265Y-23922738D01*
X99441936Y-23730289D01*
X99563224Y-23520212D01*
X99656054Y-23296100D01*
X99718838Y-23061789D01*
X99750500Y-22821288D01*
X99750500Y-22578712D01*
X99718838Y-22338211D01*
X99656054Y-22103900D01*
X99563224Y-21879788D01*
X99441936Y-21669711D01*
X99294265Y-21477262D01*
X99294260Y-21477256D01*
X99122743Y-21305739D01*
X99122736Y-21305733D01*
X98930293Y-21158067D01*
X98930292Y-21158066D01*
X98930289Y-21158064D01*
X98720212Y-21036776D01*
X98720205Y-21036773D01*
X98496104Y-20943947D01*
X98261785Y-20881161D01*
X98021289Y-20849500D01*
X98021288Y-20849500D01*
X97778712Y-20849500D01*
X97778711Y-20849500D01*
X97538214Y-20881161D01*
X97303895Y-20943947D01*
X97079794Y-21036773D01*
X97079785Y-21036777D01*
X96869706Y-21158067D01*
X96677263Y-21305733D01*
X96677256Y-21305739D01*
X96505739Y-21477256D01*
X96505733Y-21477263D01*
X96358067Y-21669706D01*
X96236777Y-21879785D01*
X96236773Y-21879794D01*
X96143947Y-22103895D01*
X96081161Y-22338214D01*
X96049500Y-22578711D01*
X91900500Y-22578711D01*
X91900500Y-20302706D01*
X91900618Y-20297297D01*
X91903377Y-20234108D01*
X91917387Y-19913224D01*
X91918325Y-19902496D01*
X91968151Y-19524032D01*
X91970024Y-19513402D01*
X92052648Y-19140714D01*
X92055446Y-19130276D01*
X92170230Y-18766227D01*
X92173917Y-18756095D01*
X92320003Y-18403412D01*
X92324561Y-18393638D01*
X92500822Y-18055045D01*
X92506217Y-18045700D01*
X92711325Y-17723744D01*
X92717515Y-17714905D01*
X92949896Y-17412060D01*
X92956834Y-17403791D01*
X93214726Y-17122352D01*
X93222352Y-17114726D01*
X93503791Y-16856834D01*
X93512060Y-16849896D01*
X93814905Y-16617515D01*
X93823744Y-16611325D01*
X94145700Y-16406217D01*
X94155045Y-16400822D01*
X94493638Y-16224561D01*
X94503412Y-16220003D01*
X94856095Y-16073917D01*
X94866227Y-16070230D01*
X95230285Y-15955443D01*
X95240714Y-15952648D01*
X95613402Y-15870024D01*
X95624032Y-15868151D01*
X96002496Y-15818325D01*
X96013224Y-15817387D01*
X96397297Y-15800617D01*
X96402706Y-15800500D01*
X96465892Y-15800500D01*
X139334108Y-15800500D01*
X139397294Y-15800500D01*
X139402702Y-15800617D01*
G37*
%TD.AperFunction*%
%TD*%
M02*
